<svg width="16" height="16" viewBox="0 0 16 16" fill="none" xmlns="http://www.w3.org/2000/svg">
<path d="M8.66699 4.02604C8.66699 3.65785 8.36851 3.35937 8.00033 3.35937C7.63213 3.35937 7.33366 3.65785 7.33366 4.02604V7.69271C7.33366 7.86952 7.4039 8.03909 7.52892 8.16411L9.52892 10.1641C9.78927 10.4245 10.2114 10.4245 10.4717 10.1641C10.7321 9.90376 10.7321 9.48165 10.4717 9.2213L8.66699 7.41657V4.02604Z" fill="#787A80"/>
<path fill-rule="evenodd" clip-rule="evenodd" d="M8.00033 0.359375C3.95024 0.359375 0.666992 3.64262 0.666992 7.69271C0.666992 11.7428 3.95024 15.026 8.00033 15.026C12.0504 15.026 15.3337 11.7428 15.3337 7.69271C15.3337 3.64262 12.0504 0.359375 8.00033 0.359375ZM2.00033 7.69271C2.00033 4.379 4.68662 1.69271 8.00033 1.69271C11.314 1.69271 14.0003 4.379 14.0003 7.69271C14.0003 11.0064 11.314 13.6927 8.00033 13.6927C4.68662 13.6927 2.00033 11.0064 2.00033 7.69271Z" fill="#787A80"/>
</svg>
