<svg width="16" height="15" viewBox="0 0 16 15" fill="none" xmlns="http://www.w3.org/2000/svg">
<path fill-rule="evenodd" clip-rule="evenodd" d="M4.99967 0.525391C5.36786 0.525391 5.66634 0.823867 5.66634 1.19206V1.5254L10.333 1.52541V1.19206C10.333 0.823868 10.6315 0.525391 10.9997 0.525391C11.3679 0.52539 11.6663 0.823867 11.6663 1.19206V1.52541L12.4997 1.52541C13.9724 1.52542 15.1663 2.71932 15.1663 4.19208V12.1921C15.1663 13.6648 13.9724 14.8587 12.4997 14.8587L3.49967 14.8587C2.02691 14.8587 0.833008 13.6648 0.833008 12.1921L0.833008 5.69219L0.833008 4.19206C0.833008 2.7193 2.02692 1.52539 3.49968 1.52539L4.33301 1.5254V1.19206C4.33301 0.823867 4.63148 0.525391 4.99967 0.525391ZM4.33301 2.85873L3.49968 2.85873C2.7633 2.85873 2.16634 3.45568 2.16634 4.19206V5.02539H13.833V4.19208C13.833 3.4557 13.2361 2.85875 12.4997 2.85875L11.6663 2.85874V3.19206C11.6663 3.56025 11.3679 3.85872 10.9997 3.85872C10.6315 3.85872 10.333 3.56025 10.333 3.19206V2.85874L5.66634 2.85873V3.19206C5.66634 3.56025 5.36786 3.85872 4.99967 3.85872C4.63148 3.85872 4.33301 3.56025 4.33301 3.19206V2.85873ZM13.833 6.35872H2.16634L2.16634 12.1921C2.16634 12.9284 2.76329 13.5254 3.49967 13.5254L12.4997 13.5254C13.2361 13.5254 13.833 12.9284 13.833 12.1921V6.35872Z" fill="#787A80"/>
</svg>
